<svg width="48" height="48" viewBox="0 0 48 48" fill="none" xmlns="http://www.w3.org/2000/svg">
<circle cx="24" cy="24" r="24" fill="white"/>
<path fill-rule="evenodd" clip-rule="evenodd" d="M35.7646 7.91019C35.4226 6.81423 34.4308 6.05103 33.2855 6.00245C32.1401 5.95388 31.0874 6.63037 30.6542 7.69345L23.214 25.9507L18.6166 15.3123C18.1888 14.3224 17.2178 13.6789 16.1409 13.6715C15.064 13.6641 14.0844 14.2943 13.6431 15.2782C13.6431 15.2782 6.80169 27.13 7.50019 28.9765C8.19869 30.823 5.97369 32.9378 6.00024 35.6956C6.01883 37.6271 6.17024 40.8871 8.10179 40.8924C8.10179 40.8924 8.16051 40.8926 8.19813 40.8924C15.7828 40.8581 16.0763 23.1399 16.0763 23.1399L20.7933 34.055C21.2279 35.0605 22.2221 35.7071 23.316 35.6956C24.4099 35.6842 25.3904 35.0168 25.8038 34.0024L32.8307 16.7592C32.8307 16.7592 35.7893 48.8813 40.1774 40.306C41.0456 38.6095 41.375 37.5585 41.7774 35.6956C42.4794 32.4456 40.4485 29.234 41.7774 27.1815C43.1063 25.129 35.7646 7.91019 35.7646 7.91019Z" fill="url(#paint0_linear_3_23)"/>
<defs>
<linearGradient id="paint0_linear_3_23" x1="41.7774" y1="6" x2="2.15665" y2="6" gradientUnits="userSpaceOnUse">
<stop offset="0.322917" stop-color="#D12C3A"/>
<stop offset="0.640625" stop-color="#223B89"/>
</linearGradient>
</defs>
</svg>
